<svg xmlns="http://www.w3.org/2000/svg" version="1.1" xmlns:xlink="http://www.w3.org/1999/xlink" xmlns:svgjs="http://svgjs.com/svgjs" width="606" height="606"><svg width="606" height="606" viewBox="0 0 606 606" xmlns="http://www.w3.org/2000/svg" xmlns:xlink="http://www.w3.org/1999/xlink">
    <g id="SvgjsG1005">
        <g id="SvgjsG1004">
            <linearGradient id="SvgjsLinearGradient1003" x1="324.090813" y1="429.751689" x2="324.090813" y2="602.251689" gradientUnits="userSpaceOnUse">
                <stop offset="0" stop-color="#ed479f" stop-opacity="1"></stop>
                <stop offset="1" stop-color="#863c87" stop-opacity="1"></stop>
            </linearGradient>
            <path id="SvgjsPath1002" fill="url(#linearGradient1)" fill-rule="evenodd" stroke="#000000" stroke-linecap="round" stroke-linejoin="round" d="M 533 604 L 425 603 L 218 484 L 219 457 L 324 458 L 324.048828 458.027344 C 454.578827 458.027344 534.206482 350.714966 533 259 C 546.909424 335.425842 487.257813 447.976563 379.0625 490.140625 L 533 580 Z"></path>
        </g>
        <linearGradient id="SvgjsLinearGradient1001" x1="161.284996" y1="30.09822" x2="235.004566" y2="603.006814" gradientUnits="userSpaceOnUse">
            <stop offset="0" stop-color="#30addc" stop-opacity="1"></stop>
            <stop offset="1" stop-color="#0e3c4c" stop-opacity="1"></stop>
        </linearGradient>
        <path id="SvgjsPath1000" fill="url(#linearGradient2)" fill-rule="evenodd" stroke="none" d="M 18 20 L 280.71286 20 C 332.646271 20 374.510315 34.667969 406.306305 64.004395 C 438.102264 93.340881 454 134.557251 454 187.654877 C 454 233.318817 439.824524 273.075043 411.473114 306.924774 C 383.121704 340.774506 339.5354 357.699097 280.71286 357.699097 L 97.092072 357.699097 L 97.092072 605 L 18 605 L 18 20 Z M 374.113037 188.053101 C 374.113037 145.044037 358.215302 115.84079 326.419312 100.442474 C 308.931549 92.212341 284.952454 88.097351 254.481308 88.097351 L 97.092072 88.097351 L 97.092072 290.796448 L 254.481308 290.796448 C 289.986816 290.796448 318.801483 283.230164 340.926147 268.097351 C 363.050842 252.964539 374.113037 226.283386 374.113037 188.053101 Z"></path>
    </g>
</svg><style>@media (prefers-color-scheme: light) { :root { filter: none; } }
@media (prefers-color-scheme: dark) { :root { filter: contrast(0.8333333333333334) brightness(1.7); } }
</style></svg>