<?xml version="1.0" encoding="UTF-8"?>
<!-- Generated by Pixelmator Pro 2.4.2 -->
<svg width="606" height="606" viewBox="0 0 606 606" xmlns="http://www.w3.org/2000/svg" xmlns:xlink="http://www.w3.org/1999/xlink">
    <g id="Small-R-Curve-copy">
        <g id="R-Curve">
            <linearGradient id="linearGradient1" x1="244.375885" y1="483.455051" x2="244.375885" y2="398.940973" gradientUnits="userSpaceOnUse">
                <stop offset="0" stop-color="#1ac9fb" stop-opacity="1"/>
                <stop offset="1" stop-color="#15458e" stop-opacity="1"/>
            </linearGradient>
            <path id="Path" fill="url(#linearGradient1)" fill-rule="evenodd" stroke="none" d="M 256.154297 483.489807 L 232.362457 483.489807 L 232.362457 398.987762 L 256.154297 398.987762 Z"/>
            <linearGradient id="linearGradient2" x1="357.588831" y1="383.498061" x2="474.891902" y2="284.473647" gradientUnits="userSpaceOnUse">
                <stop offset="0" stop-color="#1c35f2" stop-opacity="1"/>
                <stop offset="1" stop-color="#1ac9fb" stop-opacity="1"/>
            </linearGradient>
            <path id="path1" fill="url(#linearGradient2)" fill-rule="evenodd" stroke="none" d="M 341.476746 399.808167 C 411.421112 398.208313 444.814453 367.112915 463.71756 321.048981 C 470.451843 304.63855 476.690277 268.291046 468.640015 252.955109 C 534.296875 377.488647 428.878357 432.354858 377.574707 410.47345 C 366.918976 405.928711 350.13327 400.314148 341.476746 399.808167 Z"/>
            <linearGradient id="linearGradient3" x1="309.79483" y1="409.588403" x2="309.79483" y2="502.349607" gradientUnits="userSpaceOnUse">
                <stop offset="0" stop-color="#ed479f" stop-opacity="1"/>
                <stop offset="1" stop-color="#863c87" stop-opacity="1"/>
            </linearGradient>
            <path id="path2" fill="url(#linearGradient3)" fill-rule="evenodd" stroke="none" d="M 455.053192 503.289764 L 378.346649 502.579895 L 246.273743 426.653687 C 234.639008 420.430115 231.541656 453.954712 231.541656 453.954712 L 231.541656 398.987366 C 231.541656 398.987366 232.02095 398.987366 232.031967 398.987366 L 232.035172 398.883179 C 232.035172 398.883179 328.25528 399.4953 328.25528 399.4953 C 327.075073 399.536255 328.25528 399.4953 328.25528 399.4953 C 424.293884 396.163025 452.050842 354.611816 465.358368 317.767334 C 455.530304 354.294922 405.153534 421.742035 345.719391 422.421875 L 455.053192 486.243835 Z"/>
            <linearGradient id="linearGradient4" x1="344.409482" y1="485.915176" x2="344.409482" y2="398.724963" gradientUnits="userSpaceOnUse">
                <stop offset="0" stop-color="#ec4cbd" stop-opacity="1"/>
                <stop offset="1" stop-color="#aa43f6" stop-opacity="1"/>
            </linearGradient>
            <path id="path3" fill="url(#linearGradient4)" fill-rule="evenodd" stroke="none" d="M 231.925415 398.773224 L 308.660431 398.987762 L 454.693054 485.951019 L 381.676758 485.951019 L 231.925415 398.773224 Z"/>
        </g>
        <linearGradient id="linearGradient5" x1="217.308308" y1="108.939289" x2="269.667437" y2="502.630324" gradientUnits="userSpaceOnUse">
            <stop offset="0" stop-color="#30addc" stop-opacity="1"/>
            <stop offset="1" stop-color="#0e3c4c" stop-opacity="1"/>
        </linearGradient>
        <path id="PR-copy" fill="url(#linearGradient5)" fill-rule="evenodd" stroke="none" d="M 115.54052 102 L 302.131622 102 C 339.017212 102 368.751038 112.417877 391.334045 133.253998 C 413.917053 154.090179 425.208374 183.363983 425.208374 221.076447 C 425.208374 253.509125 415.140259 281.74588 395.003754 305.787567 C 374.867249 329.829254 343.910187 341.849884 302.131622 341.849884 L 171.715454 341.849884 L 171.715454 504 L 115.54052 504 L 115.54052 102 Z M 368.468872 221.359283 C 368.468872 190.812195 357.177521 170.070679 334.594513 159.134064 C 322.173889 153.288635 305.142792 150.365967 283.500732 150.365967 L 171.715454 150.365967 L 171.715454 294.332458 L 283.500732 294.332458 C 308.718445 294.332458 329.18396 288.958527 344.897949 278.21048 C 360.611969 267.462433 368.468872 248.512238 368.468872 221.359283 Z"/>
        <path id="path4" fill="#213642" fill-rule="evenodd" stroke="none" d="M 115.54052 504 L 124.063484 491.215546 L 171.650055 491.215546 L 171.650055 504 L 115.54052 504 Z"/>
    </g>
</svg>
