<?xml version="1.0" standalone="no"?>
<!DOCTYPE svg PUBLIC "-//W3C//DTD SVG 20010904//EN"
 "http://www.w3.org/TR/2001/REC-SVG-20010904/DTD/svg10.dtd">
<svg version="1.0" xmlns="http://www.w3.org/2000/svg"
 width="700.000000pt" height="700.000000pt" viewBox="0 0 700.000000 700.000000"
 preserveAspectRatio="xMidYMid meet">
<metadata>
Created by potrace 1.14, written by Peter Selinger 2001-2017
</metadata>
<g transform="translate(0.000000,700.000000) scale(0.100000,-0.100000)"
fill="#000000" stroke="none">
<path d="M1424 5822 l-20 -3 0 -2317 c0 -1274 3 -2319 7 -2322 12 -8 627 -5
635 3 4 4 7 426 7 937 l-1 930 801 1 c441 0 819 2 839 4 262 22 406 57 577
136 362 170 624 554 695 1020 14 93 15 426 2 494 -4 17 -14 66 -22 110 -99
495 -469 857 -989 965 -109 23 -146 28 -253 36 -83 6 -2238 12 -2278 6z m2076
-565 c58 -4 130 -11 160 -17 30 -6 68 -13 83 -15 64 -12 187 -58 247 -95 273
-163 387 -495 315 -923 -27 -162 -119 -321 -236 -409 -104 -79 -289 -150 -474
-184 -22 -4 -378 -9 -791 -11 l-752 -4 0 830 0 830 27 3 c48 5 1314 1 1421 -5z"/>
<path d="M5516 3965 c10 -63 10 -222 0 -295 -11 -87 -43 -239 -66 -310 -30
-92 -128 -291 -191 -385 -68 -102 -193 -227 -289 -289 -41 -27 -87 -57 -102
-68 -15 -10 -29 -18 -32 -18 -3 0 -33 -13 -68 -29 -185 -85 -367 -132 -633
-164 -176 -22 -172 -22 -935 -16 l-455 4 2 -295 c3 -583 6 -679 17 -683 6 -2
67 -3 136 -3 l125 1 3 293 c1 160 4 292 7 292 6 0 25 -11 295 -167 124 -72
380 -219 570 -328 189 -108 361 -208 382 -221 21 -13 40 -24 42 -24 3 0 29
-14 58 -32 52 -31 56 -31 188 -34 307 -6 738 -6 748 0 12 7 10 182 -3 195 -11
10 -835 501 -842 501 -3 0 -23 12 -46 28 -23 15 -51 32 -62 39 -133 79 -186
111 -220 129 -45 25 -55 41 -24 39 63 -4 328 66 367 97 8 7 32 7 74 -2 79 -17
233 -17 323 0 152 28 329 106 447 197 255 195 391 478 390 813 -1 144 -9 206
-48 360 -25 104 -64 215 -115 331 -42 96 -52 106 -43 44z"/>
</g>
</svg>
